# xmcd
# 
# Track frame offsets:
#     183
#     13345
#     25058
#     37458
#     50658
#     63275
#     75188
#     87633
#     98558
#     111708
#     122883
#     134483
#     148308
#     158370
#     170190
#     181883
#     194145
#     206120
# 
# Disc length: 2913
# 
# Revision: 2
# Processed by: cddbd v1.5.2PL0 Copyright (c) Steve Scherf et al.
# Submitted via: BonkEnc v1.0.8
# 
DISCID=140b5f12
DTITLE=Hank Williams - Best Selection
DYEAR=0
DGENRE=
TTITLE0=Jambalaya
TTITLE1=A Mansion On The Hill
TTITLE2=Lovesick Blues
TTITLE3=Wedding Bells
TTITLE4=I'm So Lonesome I Could Cry
TTITLE5=Long Gone Lonesome Blues
TTITLE6=Cold Cold Heart
TTITLE7=I Can't Help It
TTITLE8=Hey Good Lookin'
TTITLE9=Crazy Heart
TTITLE10=Baby We're Really In Love
TTITLE11=Ramblin' Man
TTITLE12=Honky Tonk Blues
TTITLE13=You Win Again
TTITLE14=Kaw-Liga
TTITLE15=Your Chartin' Heart
TTITLE16=Take These Chains From My Heart
TTITLE17=I Saw The Light
EXTD=
EXTT0=
EXTT1=
EXTT2=
EXTT3=
EXTT4=
EXTT5=
EXTT6=
EXTT7=
EXTT8=
EXTT9=
EXTT10=
EXTT11=
EXTT12=
EXTT13=
EXTT14=
EXTT15=
EXTT16=
EXTT17=
PLAYORDER=
